<svg xmlns="http://www.w3.org/2000/svg" viewBox="0 0 32 40" x="0px" y="0px"><title>Following</title><g data-name="Layer 2"><path d="M28.15,21.2A3.24,3.24,0,0,0,25.88,20a3.17,3.17,0,0,0-1.88.47A3.13,3.13,0,0,0,22.12,20a3.24,3.24,0,0,0-2.27,1.19A4,4,0,0,0,20,26.28l2.81,3.17a1.59,1.59,0,0,0,2.41,0L28,26.28A4,4,0,0,0,28.15,21.2Z"/><circle cx="14" cy="10" r="7"/><path d="M18.49,27.61,20.62,30H6a3,3,0,0,1-3-3V26a11,11,0,0,1,5-9.25,9,9,0,0,0,11.9,0A10.3,10.3,0,0,1,21.59,18a5.27,5.27,0,0,0-3.28,1.87A5.94,5.94,0,0,0,18.49,27.61Z"/></g><text x="0" y="47" fill="#000000" font-size="5px" font-weight="bold" font-family="'Helvetica Neue', Helvetica, Arial-Unicode, Arial, Sans-serif">Created by Saepul Nahwan</text><text x="0" y="52" fill="#000000" font-size="5px" font-weight="bold" font-family="'Helvetica Neue', Helvetica, Arial-Unicode, Arial, Sans-serif">from the Noun Project</text></svg>