<svg xmlns="http://www.w3.org/2000/svg" viewBox="0 0 24 30" x="0px" y="0px"><title>user, interface, ui, app, fill, star, bookmark</title><g><path d="M21.59,10.81l-4.77,3.5L19,20.68a1,1,0,0,1-.36,1.13,1,1,0,0,1-1.18,0l-5.41-4-5.41,4A1,1,0,0,1,6,22a1,1,0,0,1-.59-.19,1,1,0,0,1-.36-1.13l2.13-6.37-4.77-3.5a1,1,0,0,1-.36-1.12A1,1,0,0,1,3,9H9l2.1-6.32a1,1,0,0,1,1.9,0L15.05,9H21a1,1,0,0,1,.95.69A1,1,0,0,1,21.59,10.81Z"/></g><text x="0" y="39" fill="#000000" font-size="5px" font-weight="bold" font-family="'Helvetica Neue', Helvetica, Arial-Unicode, Arial, Sans-serif">Created by Kmg Design</text><text x="0" y="44" fill="#000000" font-size="5px" font-weight="bold" font-family="'Helvetica Neue', Helvetica, Arial-Unicode, Arial, Sans-serif">from the Noun Project</text></svg>